<svg xmlns="http://www.w3.org/2000/svg" width="64" height="64" viewBox="0 0 64 64">
<style>
  path { fill: #333333; }
  @media (prefers-color-scheme: dark) {
    path { fill: #E5E1DF; }
  }
</style>
  <defs><clipPath id="a"><path d="M0 0h64v64H0z"/></clipPath></defs><g clip-path="url(#a)"><path data-name="Path 14" d="M42.545 3.214a14.843 14.843 0 016.274 1.214 11.274 11.274 0 014.3 3.374 15.207 15.207 0 012.524 5.121 23.228 23.228 0 01.837 6.42 34.335 34.335 0 01-1.3 9 49.066 49.066 0 01-3.641 9.345 55.47 55.47 0 01-5.583 8.786 44.757 44.757 0 01-7.124 7.379 33.8 33.8 0 01-8.3 5.049 23.058 23.058 0 01-9.09 1.881 15.073 15.073 0 01-6.25-1.214 11.165 11.165 0 01-4.345-3.374 15.206 15.206 0 01-2.5-5.085 23.761 23.761 0 01-.825-6.42 34.3 34.3 0 011.25-9.041 49.066 49.066 0 013.641-9.345 56.46 56.46 0 015.583-8.8 45.3 45.3 0 017.136-7.379 34.285 34.285 0 018.289-5.036 23.058 23.058 0 019.124-1.875zm6.068 14.09a22.271 22.271 0 00-.462-4.59 10.813 10.813 0 00-1.541-3.786 7.585 7.585 0 00-2.959-2.582 10.267 10.267 0 00-4.709-.959 11.6 11.6 0 00-6.881 2.294 25.279 25.279 0 00-5.837 5.959 48.032 48.032 0 00-4.673 8.216 74.641 74.641 0 00-3.41 9.078 73.147 73.147 0 00-2.087 8.592 39.965 39.965 0 00-.716 6.626 22.269 22.269 0 00.461 4.587 11.322 11.322 0 001.5 3.8 7.439 7.439 0 002.876 2.585 9.806 9.806 0 004.587.959 11.93 11.93 0 007.063-2.294 24.94 24.94 0 005.874-5.959 46.9 46.9 0 004.672-8.216 81.826 81.826 0 003.459-9.09 68.539 68.539 0 002.124-8.592 39.968 39.968 0 00.68-6.626z"/></g>
</svg>